<?xml version="1.0" encoding="UTF-8" standalone="no"?>
<!DOCTYPE svg PUBLIC "-//W3C//DTD SVG 1.1//EN" "http://www.w3.org/Graphics/SVG/1.1/DTD/svg11.dtd">
<svg width="100%" height="100%" viewBox="0 0 3200 2000" version="1.1" xmlns="http://www.w3.org/2000/svg" xmlns:xlink="http://www.w3.org/1999/xlink" xml:space="preserve" xmlns:serif="http://www.serif.com/" style="fill-rule:evenodd;clip-rule:evenodd;stroke-linejoin:round;stroke-miterlimit:2;">
    <g>
        <rect x="0" y="0" width="3200" height="2000" style="fill:white;fill-rule:nonzero;"/>
        <path d="M265.604,1478.71C265.604,1478.71 155.065,1169.52 312.194,940.892C428.321,771.926 691.346,656.146 1005.65,710.783C1112.46,729.351 1484.58,669.922 1809.74,484.007C2257.71,227.871 2940.23,449.937 2840.94,961.014C2781.7,1265.97 3157.59,1184.94 2953.95,1479.33L265.604,1478.71Z" style="fill:rgb(235,243,250);fill-rule:nonzero;"/>
        <path d="M2543.82,1475.87L2542.56,1106.18C2542.56,1106.18 2539.74,1079.54 2516.51,1079.4C2491.73,1079.25 2490.15,1105.87 2490.15,1105.87C2490.15,1105.87 2490.49,1108.17 2493.03,1108.19C2495.7,1108.2 2496.15,1105.9 2496.15,1105.9C2496.15,1105.9 2497.37,1085.38 2516.48,1085.5C2534.38,1085.6 2536.56,1106.14 2536.56,1106.14L2534.36,1475.81L2543.82,1475.87Z" style="fill:rgb(35,56,98);fill-rule:nonzero;"/>
        <path d="M2531.18,1475.79L2546.59,1475.89L2545.31,1459.76C2545.31,1459.76 2545.46,1457.52 2542.35,1457.38C2539.45,1457.24 2533.74,1456.79 2533.19,1458.54C2532.7,1460.08 2531.18,1475.79 2531.18,1475.79Z" style="fill:rgb(35,56,98);fill-rule:nonzero;"/>
        <path d="M2516.44,1059.81L2515.36,1065.09C2515.36,1065.09 2489.22,1064.84 2482.94,1092.81C2482.94,1092.81 2481.22,1104.45 2489.63,1102.01C2498.05,1099.58 2496.78,1093.62 2508.7,1090.43C2520.61,1087.25 2528.38,1084.8 2530.24,1076.15L2532.24,1066.52L2516.44,1059.81Z" style="fill:rgb(255,178,125);fill-rule:nonzero;"/>
        <path d="M2610.22,831.154C2610.22,831.154 2603.15,858.313 2597.03,883.147C2594.57,893.151 2592.27,902.772 2590.65,910.091C2588.98,917.611 2588.04,922.702 2588.39,923.27C2593.52,931.716 2583.74,982.976 2576.14,1001.57C2575.47,1003.21 2574.55,1005.15 2573.44,1007.29C2562.84,1027.76 2534.71,1067.91 2534.71,1067.91C2534.71,1067.91 2526.84,1068.69 2521.7,1066.71C2517.42,1065.06 2514.52,1059.79 2514.52,1059.79C2517.04,1055.79 2527.41,1008.43 2540.55,981.915C2546.18,970.572 2554.99,865.079 2565.83,850.933C2574.88,839.133 2610.22,831.154 2610.22,831.154Z" style="fill:rgb(249,151,70);fill-rule:nonzero;"/>
        <path d="M2588.39,923.27C2593.52,931.716 2583.74,982.976 2576.14,1001.57C2575.47,1003.21 2574.55,1005.15 2573.44,1007.29C2563.69,962.939 2580.66,900.296 2580.66,900.296C2584.79,901.961 2588.08,905.394 2590.65,910.091C2588.98,917.611 2588.04,922.702 2588.39,923.27Z" style="fill:rgb(237,125,43);fill-rule:nonzero;"/>
        <path d="M2657.89,1435.83C2657.89,1435.83 2660.31,1475.93 2652.74,1476.44C2651.73,1476.51 2614.35,1476.29 2614.35,1476.29L2566.12,1476C2566.12,1476 2567,1464.23 2580.97,1461.88C2594.93,1459.53 2618.34,1449.87 2626.9,1431.48C2635.91,1412.14 2657.89,1435.83 2657.89,1435.83Z" style="fill:rgb(15,41,73);fill-rule:nonzero;"/>
        <path d="M2730.42,1436.26C2730.42,1436.26 2732.84,1476.36 2725.27,1476.87C2724.26,1476.94 2686.88,1476.72 2686.88,1476.72L2638.65,1476.43C2638.65,1476.43 2639.53,1464.66 2653.5,1462.31C2667.46,1459.96 2690.87,1450.3 2699.43,1431.91C2708.44,1412.57 2730.42,1436.26 2730.42,1436.26Z" style="fill:rgb(22,53,96);fill-rule:nonzero;"/>
        <path d="M2660.74,1339.22C2661.83,1356.18 2664.12,1377.99 2663.14,1397.63C2661.77,1425.1 2660.76,1448.26 2660.76,1448.26C2642.61,1454.31 2609.43,1446.64 2609.43,1446.64C2609.43,1446.64 2598.05,1377.15 2588.67,1321.67C2584.46,1296.81 2580.98,1275.31 2579.69,1265.16C2575.51,1232.34 2585.57,1058.07 2585.57,1058.07C2585.57,1058.07 2634.76,1026.95 2654.92,1043.26C2675.06,1059.57 2687.43,1075.47 2653.75,1252.67C2651.2,1266.11 2658.31,1301.24 2660.74,1339.22Z" style="fill:rgb(43,71,139);fill-rule:nonzero;"/>
        <path d="M2660.74,1339.22C2661.83,1356.18 2663.85,1383.32 2662.88,1402.96C2645.95,1384.83 2612.59,1346.59 2588.67,1321.67C2584.46,1296.81 2580.98,1275.31 2579.69,1265.16C2575.51,1232.34 2585.57,1058.07 2585.57,1058.07C2585.57,1058.07 2634.76,1026.95 2654.92,1043.26C2675.06,1059.57 2687.43,1075.47 2653.75,1252.67C2651.2,1266.11 2658.31,1301.24 2660.74,1339.22Z" style="fill:rgb(35,56,98);fill-rule:nonzero;"/>
        <path d="M2629.84,1061.88C2629.84,1061.88 2633.2,1236.41 2639.89,1268.81C2646.57,1301.2 2681.58,1449.53 2681.58,1449.53C2681.58,1449.53 2715.21,1452.8 2732.84,1445.37C2732.84,1445.37 2732.13,1376.77 2726.4,1336.43C2721.05,1298.74 2711.26,1264.26 2712.77,1250.66C2732.74,1071.41 2719.18,1056.5 2697.84,1041.79C2676.49,1027.07 2629.84,1061.88 2629.84,1061.88Z" style="fill:rgb(43,71,139);fill-rule:nonzero;"/>
        <path d="M2696.26,1077.55C2696.26,1077.55 2684.46,1100.87 2706.76,1118.88C2706.76,1118.88 2716.44,1125.59 2717.98,1116.96C2719.52,1108.33 2717.78,1111.33 2720.2,1099.23C2722.62,1087.14 2719.69,1074.59 2712.76,1069.1L2696.26,1077.55Z" style="fill:rgb(255,178,125);fill-rule:nonzero;"/>
        <path d="M2599.69,791.548C2599.69,791.548 2613.02,812.08 2610.22,831.15L2629.85,879.242L2666.1,824.537C2666.1,824.537 2647.25,803.768 2640.33,775.567L2599.69,791.548Z" style="fill:rgb(255,178,125);fill-rule:nonzero;"/>
        <path d="M2593.68,808.963C2593.68,808.963 2642.67,811.376 2643.73,781.966C2644.8,752.557 2658.16,733.067 2621.52,730.264C2591.4,727.959 2581.3,740.468 2578.56,750.197C2575.82,759.927 2575.53,807.279 2593.68,808.963Z" style="fill:rgb(255,178,125);fill-rule:nonzero;"/>
        <path d="M2712.09,1070.77C2701.55,1071.69 2687.05,1072.82 2669.46,1073.82C2665.95,1074.02 2662.31,1074.22 2658.56,1074.4C2605.45,1077.06 2584.39,1068.34 2584.39,1068.34C2584.39,1068.34 2582.99,1067.19 2583.48,1060.96C2585.97,1028.86 2592.85,1019.42 2592.06,1013.31C2590.3,999.588 2557.69,887.477 2557.69,887.477C2557.69,887.477 2557.26,852.121 2596.67,835.762C2600.74,834.07 2605.22,832.589 2610.16,831.367C2611.86,835.953 2616.53,843.624 2628.61,842.287C2646.48,840.313 2659.25,829.868 2664.73,824.501C2665.71,824.507 2666.1,824.541 2666.1,824.541C2667.41,828.308 2668.43,832.235 2669.33,836.225C2672.47,850.14 2674.27,864.77 2682.73,875.75C2691.08,886.591 2698.22,897.274 2704.31,907.718C2709.37,916.409 2713.71,924.939 2717.41,933.245C2751.76,1010.38 2724.48,1069.69 2712.09,1070.77Z" style="fill:rgb(249,151,70);fill-rule:nonzero;"/>
        <path d="M2712.09,1070.77C2701.55,1071.69 2687.05,1072.82 2669.46,1073.82C2664.85,987.367 2700.55,904.572 2700.55,904.572C2701.87,905.511 2703.12,906.562 2704.31,907.718C2710.4,913.713 2714.63,922.581 2717.41,933.245C2727.67,972.493 2718.51,1036.11 2712.09,1070.77Z" style="fill:rgb(237,125,43);fill-rule:nonzero;"/>
        <path d="M2578.05,780.813C2578.05,780.813 2568.29,818.6 2584.44,824.025C2600.6,829.451 2643.6,825.436 2643.86,779.041C2643.86,779.041 2621.23,792.356 2610.46,791.952C2599.69,791.548 2592.77,785.291 2582.79,790.088C2582.79,790.088 2579.14,789.823 2578.05,780.813Z" style="fill:white;fill-rule:nonzero;"/>
        <path d="M2666.1,824.537C2666.1,824.537 2700.35,825.511 2718.3,849.164C2732.06,867.289 2746.14,964.186 2746.06,978.762C2745.97,993.339 2729.88,1073.69 2721.09,1082.38C2721.09,1082.38 2715.42,1083.81 2707.88,1082.3C2699.88,1080.71 2695.19,1076.04 2695.19,1076.04C2695.19,1076.04 2700.07,986.506 2700.12,978.105C2700.19,965.942 2662.61,891.266 2662.61,891.266C2662.61,891.266 2643.1,855.717 2666.1,824.537Z" style="fill:rgb(249,151,70);fill-rule:nonzero;"/>
        <path d="M2641.68,739.533C2640.87,736.524 2637.19,734.925 2637.19,734.925C2609.66,722.741 2589.42,735.773 2589.42,735.773C2606.47,713.169 2647.26,718.178 2655.74,738.709C2669.58,772.23 2643.86,779.041 2643.86,779.041C2643.86,779.041 2618.28,768.112 2633.21,754.692C2638.16,750.245 2640.56,746.28 2641.37,742.822C2641.64,741.669 2641.73,740.572 2641.68,739.533Z" style="fill:white;fill-rule:nonzero;"/>
        <path d="M2586.06,796.178C2586.06,796.178 2589.29,801.28 2594.94,801.098C2600.58,800.916 2603.24,796.178 2603.24,796.178C2603.24,796.178 2593.71,794.355 2586.06,796.178Z" style="fill:white;fill-rule:nonzero;"/>
        <path d="M2148.53,1481.2C2148.53,1481.2 2148.53,1467.99 2150.41,1463.59C2152.29,1459.2 2159.2,1441.31 2159.2,1441.31L2186.19,1441.31C2186.19,1441.31 2191.21,1457.63 2191.53,1462.97C2191.84,1468.3 2191.53,1481.2 2191.53,1481.2L2148.53,1481.2Z" style="fill:rgb(35,56,98);fill-rule:nonzero;"/>
        <path d="M2319.91,1481.2C2319.91,1481.2 2319.91,1467.99 2318.03,1463.59C2316.14,1459.2 2309.24,1441.31 2309.24,1441.31L2282.25,1441.31C2282.25,1441.31 2277.22,1457.63 2276.91,1462.97C2276.6,1468.3 2276.91,1481.2 2276.91,1481.2L2319.91,1481.2Z" style="fill:rgb(35,56,98);fill-rule:nonzero;"/>
        <path d="M2211.77,739.503C2211.77,739.503 2210.82,768.929 2207.05,782.111L2177.25,802.905L2289.45,819.697L2262.69,782.723C2262.69,782.723 2254.61,743.27 2258.85,728.675C2263.09,714.081 2211.77,739.503 2211.77,739.503Z" style="fill:rgb(255,178,125);fill-rule:nonzero;"/>
        <path d="M2211.61,743.567C2211.61,743.558 2220.48,764.927 2237.19,764.456C2253.91,763.985 2257.71,745.086 2257.71,745.086L2211.61,743.567Z" style="fill:rgb(237,152,95);fill-rule:nonzero;"/>
        <path d="M2201.63,726.273C2201.63,726.273 2196.23,699.329 2192.47,691.168C2188.7,683.008 2185.56,646.599 2227.31,644.716C2227.31,644.716 2243.31,646.599 2252.1,641.263C2252.1,641.263 2252.1,646.599 2249.91,648.482C2249.91,648.482 2264.34,645.03 2275.64,657.584C2286.94,670.139 2268.11,714.081 2269.05,724.438L2201.63,726.273Z" style="fill:rgb(44,58,100);fill-rule:nonzero;"/>
        <path d="M2269.68,688.729L2269.68,718.13C2269.68,723.042 2268.55,727.767 2266.64,732.108L2266.63,732.108C2263.33,739.606 2257.72,745.976 2251.58,750.273C2246.13,754.099 2240.28,756.291 2235.28,756.204C2230.93,756.116 2225.27,753.989 2219.79,750.36C2212.41,745.471 2205.38,737.874 2202.39,728.929L2202.35,728.797L2202.24,728.424C2201.37,725.684 2200.88,722.833 2200.88,719.896L2200.88,688.729C2200.88,681.439 2205.96,675.475 2212.18,675.475L2258.38,675.475C2264.59,675.475 2269.68,681.439 2269.68,688.729Z" style="fill:rgb(255,178,125);fill-rule:nonzero;"/>
        <path d="M2200.88,705.371C2200.88,705.371 2200.94,686.647 2215.77,683.768C2230.6,680.889 2263.79,692.895 2268.5,679.241C2273.21,665.588 2204.35,665.823 2200.88,674.533C2197.41,683.243 2200.88,705.371 2200.88,705.371Z" style="fill:rgb(44,58,100);fill-rule:nonzero;"/>
        <path d="M2151.91,1023.57C2151.91,1023.57 2156.63,1167.78 2149.57,1250.06C2142.51,1332.34 2149.62,1446.86 2149.62,1446.86C2149.62,1446.86 2172.21,1459.31 2196.69,1446.86C2196.69,1446.86 2223.54,1287.89 2223.37,1250.06C2223.19,1209.77 2252.59,1029.85 2252.59,1029.85L2151.91,1023.57Z" style="fill:rgb(249,151,70);fill-rule:nonzero;"/>
        <path d="M2318.93,1446.85C2318.93,1446.85 2296.35,1459.31 2271.87,1446.85C2271.87,1446.85 2245.03,1287.89 2245.2,1250.06C2245.27,1233.04 2240.08,1191.11 2234.04,1148.37C2225.78,1089.88 2215.97,1029.86 2215.97,1029.86L2320.55,1023.32C2320.55,1023.32 2311.93,1167.78 2318.99,1250.06C2326.05,1332.34 2318.93,1446.85 2318.93,1446.85Z" style="fill:rgb(249,151,70);fill-rule:nonzero;"/>
        <path d="M2319.3,1047.56C2319.3,1047.56 2274.72,1056.19 2234.04,1056.19C2216.3,1056.19 2197.02,1054.24 2181.68,1052.19C2164.71,1049.94 2152.54,1047.56 2152.54,1047.56C2152.54,1047.56 2143.5,1048.35 2148.84,1003.78C2152.9,969.866 2151.63,939.245 2150.73,907.739C2150.62,904.237 2150.7,900.094 2150.91,895.479C2152.65,858.748 2163.76,792.619 2172.22,789.069C2172.22,789.069 2184.81,784.39 2207.05,782.111C2207.05,782.544 2219.96,801.414 2235.28,803.532C2244.8,799.766 2252.28,796.555 2262.69,782.723C2275.88,784.258 2290.27,786.875 2305.66,791.009C2305.66,791.009 2307.26,798.015 2313.3,919.557C2315.7,967.701 2332.14,1047.72 2319.3,1047.56Z" style="fill:rgb(53,72,139);fill-rule:nonzero;"/>
        <path d="M2181.68,1052.19C2164.71,1049.94 2152.54,1047.56 2152.54,1047.56C2152.54,1047.56 2143.5,1048.35 2148.84,1003.78C2152.9,969.866 2151.63,939.245 2150.73,907.739C2150.62,904.237 2150.7,900.094 2150.91,895.479C2153.51,899.642 2182.48,946.42 2190.27,981.184C2195.95,1006.54 2187.39,1036.41 2181.68,1052.19Z" style="fill:rgb(44,58,100);fill-rule:nonzero;"/>
        <path d="M2245.2,1250.06C2245.27,1233.04 2240.08,1191.11 2234.04,1148.37C2240.3,1122.83 2255.56,1098.25 2255.56,1098.25C2274.86,1152.4 2245.2,1250.06 2245.2,1250.06Z" style="fill:rgb(237,125,43);fill-rule:nonzero;"/>
        <path d="M2109.52,933.747C2108.46,934.631 2112.17,943.821 2117.63,955.799C2128.87,980.403 2147.54,1016.74 2147.54,1016.74C2144.84,1026.99 2141.88,1033.33 2141.88,1033.33C2110.46,1008.65 2090.21,987.653 2077.28,971.552C2059.11,948.906 2055.38,935.921 2055.38,935.921C2125.32,793.551 2174.54,788.303 2174.54,788.303L2168.73,882.392C2168.73,882.392 2112.76,931.053 2109.52,933.747Z" style="fill:rgb(53,72,139);fill-rule:nonzero;"/>
        <path d="M2143.82,1018.53C2143.82,1018.53 2160.77,1002.84 2167.67,1011.63C2174.58,1020.41 2175.83,1034.22 2170.5,1033.28C2165.16,1032.34 2154.18,1027.32 2152.61,1029.83C2151.04,1032.34 2144.01,1037.14 2141.87,1033.33C2139.74,1029.52 2143.82,1018.53 2143.82,1018.53Z" style="fill:rgb(255,178,125);fill-rule:nonzero;"/>
        <path d="M2147.54,1016.74C2144.84,1026.99 2141.88,1033.33 2141.88,1033.33C2110.46,1008.65 2090.21,987.653 2077.28,971.552C2087.03,970.827 2101.26,967.343 2117.63,955.799C2128.87,980.403 2147.54,1016.74 2147.54,1016.74Z" style="fill:rgb(255,178,125);fill-rule:nonzero;"/>
        <path d="M2417.68,935.921C2417.68,935.921 2413.95,948.906 2395.78,971.552C2382.85,987.653 2362.6,1008.65 2331.19,1033.33C2331.19,1033.33 2328.22,1026.99 2325.52,1016.74C2325.52,1016.74 2344.19,980.403 2355.43,955.799C2360.89,943.821 2364.6,934.631 2363.54,933.747C2361.02,931.656 2326.83,901.948 2311.58,888.7C2307.15,884.849 2304.33,882.392 2304.33,882.392L2300.84,789.7C2300.84,789.7 2347.74,793.551 2417.68,935.921Z" style="fill:rgb(53,72,139);fill-rule:nonzero;"/>
        <path d="M2329.24,1018.53C2329.24,1018.53 2312.29,1002.84 2305.38,1011.63C2298.48,1020.41 2297.22,1034.22 2302.56,1033.28C2307.9,1032.34 2318.88,1027.32 2320.45,1029.83C2322.02,1032.34 2329.05,1037.14 2331.19,1033.33C2333.32,1029.52 2329.24,1018.53 2329.24,1018.53Z" style="fill:rgb(255,178,125);fill-rule:nonzero;"/>
        <path d="M2325.51,1016.74C2328.22,1026.99 2331.18,1033.33 2331.18,1033.33C2362.59,1008.65 2382.85,987.653 2395.77,971.552C2386.03,970.827 2371.8,967.343 2355.43,955.799C2344.19,980.403 2325.51,1016.74 2325.51,1016.74Z" style="fill:rgb(255,178,125);fill-rule:nonzero;"/>
        <path d="M2251.58,737.315L2251.58,750.273C2246.13,754.099 2240.28,756.291 2235.28,756.204C2230.93,756.116 2225.27,753.989 2219.79,750.36L2219.79,737.315C2219.79,730.08 2225.71,724.16 2232.94,724.16L2238.42,724.16C2245.66,724.16 2251.58,730.08 2251.58,737.315Z" style="fill:rgb(44,58,100);fill-rule:nonzero;"/>
        <path d="M2266.63,732.108C2260.41,746.261 2245.91,756.39 2235.28,756.204C2225.06,756.017 2207.6,744.506 2202.39,728.929L2202.35,728.797L2202.24,728.424C2202.24,728.424 2213.21,737.786 2220.47,733.149L2250.95,733.149C2250.95,733.149 2258.94,737.709 2266.63,732.108Z" style="fill:rgb(44,58,100);fill-rule:nonzero;"/>
        <path d="M2238.97,735.733L2232.39,735.733C2230.89,735.733 2228.97,733.266 2228.97,731.759C2228.97,731.759 2230.89,730.251 2232.39,730.251L2238.97,730.251C2240.48,730.251 2242.68,731.503 2243.04,732.398C2243.04,732.398 2242.12,735.733 2238.97,735.733Z" style="fill:rgb(255,178,125);fill-rule:nonzero;"/>
        <path d="M2225.66,731.144C2225.66,731.144 2229.43,737.564 2236.02,737.335C2242.61,737.106 2245.71,731.144 2245.71,731.144C2245.71,731.144 2234.59,728.851 2225.66,731.144Z" style="fill:white;fill-rule:nonzero;"/>
        <path d="M1711.85,1479.93C1711.85,1479.93 1711.85,1466.72 1713.73,1462.32C1715.62,1457.93 1722.52,1440.04 1722.52,1440.04L1749.51,1440.04C1749.51,1440.04 1754.54,1456.36 1754.85,1461.69C1755.16,1467.03 1754.85,1479.93 1754.85,1479.93L1711.85,1479.93Z" style="fill:rgb(35,56,98);fill-rule:nonzero;"/>
        <path d="M1883.23,1479.93C1883.23,1479.93 1883.23,1466.72 1881.35,1462.32C1879.47,1457.93 1872.56,1440.04 1872.56,1440.04L1845.57,1440.04C1845.57,1440.04 1840.55,1456.36 1840.23,1461.69C1839.92,1467.03 1840.23,1479.93 1840.23,1479.93L1883.23,1479.93Z" style="fill:rgb(35,56,98);fill-rule:nonzero;"/>
        <path d="M1775.09,738.231C1775.09,738.231 1774.14,767.656 1770.38,780.839L1740.57,801.632L1852.78,818.424L1826.02,781.451C1826.02,781.451 1817.94,741.998 1822.17,727.403C1826.41,712.808 1775.09,738.231 1775.09,738.231Z" style="fill:rgb(255,178,125);fill-rule:nonzero;"/>
        <path d="M1774.93,742.295C1774.93,742.286 1783.8,763.655 1800.52,763.184C1817.23,762.713 1821.03,743.813 1821.03,743.813L1774.93,742.295Z" style="fill:rgb(237,152,95);fill-rule:nonzero;"/>
        <path d="M1764.95,725.001C1764.95,725.001 1759.56,698.057 1755.79,689.896C1752.02,681.735 1748.89,645.327 1790.63,643.443C1790.63,643.443 1806.64,645.327 1815.43,639.991C1815.43,639.991 1815.43,645.327 1813.23,647.21C1813.23,647.21 1827.67,643.757 1838.97,656.312C1850.27,668.867 1831.44,712.809 1832.38,723.166L1764.95,725.001Z" style="fill:rgb(44,58,100);fill-rule:nonzero;"/>
        <path d="M1798.6,754.93C1786.49,754.716 1764.2,738.591 1764.2,718.622L1764.2,687.46C1764.2,680.168 1769.29,674.203 1775.5,674.203L1821.7,674.203C1827.92,674.203 1833,680.168 1833,687.46L1833,716.858C1833,737.798 1812.49,755.175 1798.6,754.93Z" style="fill:rgb(255,178,125);fill-rule:nonzero;"/>
        <path d="M1764.2,704.099C1764.2,704.099 1764.27,685.375 1779.1,682.496C1793.93,679.617 1827.12,691.622 1831.83,677.969C1836.53,664.315 1767.67,664.551 1764.2,673.261C1760.73,681.971 1764.2,704.099 1764.2,704.099Z" style="fill:rgb(44,58,100);fill-rule:nonzero;"/>
        <path d="M1715.23,1022.29C1715.23,1022.29 1719.96,1166.51 1712.89,1248.79C1705.83,1331.07 1712.95,1445.58 1712.95,1445.58C1712.95,1445.58 1735.53,1458.04 1760.01,1445.58C1760.01,1445.58 1786.86,1286.62 1786.69,1248.79C1786.51,1208.5 1815.91,1028.58 1815.91,1028.58L1715.23,1022.29Z" style="fill:rgb(43,71,139);fill-rule:nonzero;"/>
        <path d="M1882.26,1445.58C1882.26,1445.58 1859.68,1458.04 1835.2,1445.58C1835.2,1445.58 1808.35,1286.62 1808.52,1248.79C1808.6,1231.77 1803.4,1189.84 1797.36,1147.09C1789.1,1088.61 1779.29,1028.58 1779.29,1028.58L1883.88,1022.05C1883.88,1022.05 1875.25,1166.51 1882.31,1248.79C1889.38,1331.07 1882.26,1445.58 1882.26,1445.58Z" style="fill:rgb(43,71,139);fill-rule:nonzero;"/>
        <path d="M1882.62,1046.29C1882.62,1046.29 1838.04,1054.92 1797.36,1054.92C1779.62,1054.92 1760.35,1052.97 1745,1050.92C1728.03,1048.67 1715.87,1046.29 1715.87,1046.29C1715.87,1046.29 1706.83,1047.08 1712.17,1002.51C1716.23,968.594 1714.95,937.973 1714.05,906.467C1713.95,902.964 1714.02,898.821 1714.24,894.208C1715.97,857.476 1727.08,791.347 1735.55,787.797C1735.55,787.797 1748.14,783.118 1770.38,780.839C1770.38,781.272 1783.29,800.142 1798.61,802.26C1808.13,798.494 1815.6,795.283 1826.02,781.451C1839.21,782.986 1853.6,785.604 1868.98,789.737C1868.98,789.737 1870.58,796.743 1876.63,918.284C1879.03,966.428 1895.46,1046.45 1882.62,1046.29Z" style="fill:white;fill-rule:nonzero;"/>
        <path d="M1745,1050.92C1728.03,1048.67 1715.87,1046.29 1715.87,1046.29C1715.87,1046.29 1706.83,1047.08 1712.17,1002.51C1716.23,968.594 1714.95,937.973 1714.05,906.467C1713.95,902.964 1714.02,898.821 1714.24,894.208C1716.84,898.369 1745.8,945.148 1753.6,979.912C1759.27,1005.27 1750.72,1035.14 1745,1050.92Z" style="fill:rgb(223,235,253);fill-rule:nonzero;"/>
        <path d="M1808.52,1248.79C1808.6,1231.77 1803.4,1189.84 1797.36,1147.09C1803.62,1121.56 1818.88,1096.98 1818.88,1096.98C1838.18,1151.12 1808.52,1248.79 1808.52,1248.79Z" style="fill:rgb(35,56,98);fill-rule:nonzero;"/>
        <path d="M1672.85,932.474C1671.78,933.359 1675.49,942.549 1680.95,954.526C1692.2,979.13 1710.87,1015.47 1710.87,1015.47C1708.16,1025.72 1705.2,1032.06 1705.2,1032.06C1673.79,1007.38 1653.53,986.381 1640.6,970.279C1622.43,947.634 1618.7,934.649 1618.7,934.649C1688.65,792.279 1737.87,787.031 1737.87,787.031L1732.05,881.119C1732.05,881.119 1676.08,929.781 1672.85,932.474Z" style="fill:white;fill-rule:nonzero;"/>
        <path d="M1707.14,1017.26C1707.14,1017.26 1724.09,1001.57 1731,1010.35C1737.9,1019.14 1739.16,1032.95 1733.82,1032.01C1728.48,1031.07 1717.5,1026.05 1715.93,1028.56C1714.36,1031.07 1707.33,1035.87 1705.2,1032.06C1703.06,1028.24 1707.14,1017.26 1707.14,1017.26Z" style="fill:rgb(255,178,125);fill-rule:nonzero;"/>
        <path d="M1710.87,1015.47C1708.16,1025.72 1705.2,1032.06 1705.2,1032.06C1673.79,1007.38 1653.53,986.381 1640.6,970.279C1650.35,969.554 1664.58,966.07 1680.95,954.526C1692.2,979.13 1710.87,1015.47 1710.87,1015.47Z" style="fill:rgb(255,178,125);fill-rule:nonzero;"/>
        <path d="M1981,934.649C1981,934.649 1977.27,947.634 1959.1,970.279C1946.17,986.381 1925.92,1007.38 1894.51,1032.06C1894.51,1032.06 1891.54,1025.72 1888.84,1015.47C1888.84,1015.47 1907.51,979.13 1918.75,954.526C1924.22,942.549 1927.93,933.359 1926.86,932.474C1924.35,930.384 1890.16,900.676 1874.9,887.428C1870.48,883.577 1867.65,881.119 1867.65,881.119L1864.16,788.428C1864.16,788.428 1911.06,792.279 1981,934.649Z" style="fill:white;fill-rule:nonzero;"/>
        <path d="M1892.56,1017.26C1892.56,1017.26 1875.61,1001.57 1868.71,1010.35C1861.8,1019.14 1860.55,1032.95 1865.88,1032.01C1871.22,1031.07 1882.2,1026.05 1883.77,1028.56C1885.34,1031.07 1892.37,1035.87 1894.51,1032.06C1896.64,1028.24 1892.56,1017.26 1892.56,1017.26Z" style="fill:rgb(255,178,125);fill-rule:nonzero;"/>
        <path d="M1888.84,1015.47C1891.54,1025.72 1894.5,1032.06 1894.5,1032.06C1925.92,1007.38 1946.17,986.381 1959.1,970.279C1949.35,969.554 1935.12,966.07 1918.75,954.526C1907.51,979.13 1888.84,1015.47 1888.84,1015.47Z" style="fill:rgb(255,178,125);fill-rule:nonzero;"/>
        <path d="M1771.94,773.664C1771.94,773.664 1766.96,775.74 1765.54,781.389C1765.54,781.389 1785.53,801.946 1798.61,802.26L1771.94,773.664Z" style="fill:rgb(237,125,43);fill-rule:nonzero;"/>
        <path d="M1798.61,802.26L1824.4,772.625C1824.4,772.625 1829.73,776.13 1829.65,781.897C1829.65,781.897 1809.7,803.045 1798.61,802.26Z" style="fill:rgb(237,125,43);fill-rule:nonzero;"/>
        <path d="M1793.95,800.079C1793.95,800.079 1774.27,970.04 1781.12,990.756C1784.65,1001.42 1789.38,1010.65 1793.13,1017.09C1795.83,1021.72 1802.53,1021.71 1805.21,1017.06C1810.44,1007.98 1817.27,994.849 1817.27,988.182C1817.27,977.383 1802.33,799.932 1802.33,799.932L1793.95,800.079Z" style="fill:rgb(249,151,70);fill-rule:nonzero;"/>
        <path d="M1788.8,791.747C1788.8,791.747 1800.7,790.555 1807.95,791.29C1809.38,791.436 1810.18,793.007 1809.48,794.27C1807.45,797.925 1803.31,804.261 1798.98,804.261C1792.89,804.261 1783.4,792.167 1788.8,791.747Z" style="fill:rgb(237,125,43);fill-rule:nonzero;"/>
        <path d="M1788.95,734.858C1788.95,734.858 1792.73,739.96 1799.31,739.778C1805.9,739.596 1809,734.858 1809,734.858C1809,734.858 1797.88,733.036 1788.95,734.858Z" style="fill:white;fill-rule:nonzero;"/>
        <path d="M1066.45,1019.37L1028.65,1038.69L1021.08,1012.47C1021.08,1012.47 1025.89,1003.39 1028.07,988.527C1028.98,982.276 1029.43,975.001 1028.85,966.943L1059.65,982.712C1059.65,982.712 1058.91,985.559 1058.42,989.761C1057.9,994.302 1057.66,1000.42 1058.95,1006.24C1060.07,1011.23 1062.3,1016 1066.45,1019.37Z" style="fill:rgb(255,178,125);fill-rule:nonzero;"/>
        <path d="M1069.14,1028.67C1069.14,1028.67 1119.46,983.784 1122.54,977.614C1125.61,971.444 1139.88,916.306 1139.88,916.306L1151.88,917.772C1151.88,917.772 1149.59,983.893 1144.54,996.773C1139.48,1009.65 1080.21,1064.42 1080.21,1064.42L1069.14,1028.67Z" style="fill:rgb(255,178,125);fill-rule:nonzero;"/>
        <path d="M998.978,1024.7C998.978,1024.7 964.096,979.537 947.119,965.52C947.119,965.52 923.899,908.265 922.013,904.492C920.126,900.719 908.071,907.636 908.071,907.636C908.071,907.636 916.599,963.293 925.593,979.792C934.588,996.291 962.478,1051.66 982.164,1053.72C1001.85,1055.77 998.978,1024.7 998.978,1024.7Z" style="fill:rgb(255,178,125);fill-rule:nonzero;"/>
        <path d="M1104.32,1449.65C1104.32,1449.65 1108.26,1457.34 1116.99,1459.25C1122.49,1460.44 1127.2,1463.31 1130.13,1467.32C1132.6,1470.71 1130.21,1475.48 1126.01,1475.48L1081.69,1475.48C1077.92,1475.48 1074.97,1472.22 1075.35,1468.47C1075.68,1465.19 1076.03,1461.36 1076.18,1458.43C1076.5,1452.03 1082.91,1446.88 1082.91,1446.88L1104.32,1449.65Z" style="fill:rgb(44,58,100);fill-rule:nonzero;"/>
        <path d="M1105.38,1451.59C1105.38,1451.59 1094.75,1457.87 1076.76,1454.08C1076.76,1454.08 1046.18,1375.87 1044.37,1339.07C1044.29,1337.59 1044.26,1336.19 1044.29,1334.85C1044.9,1300.23 1012.94,1210.1 1021.56,1191.63C1030.18,1173.16 1099.84,1199.93 1099.84,1199.93L1101.22,1262.74L1105.38,1451.59Z" style="fill:rgb(53,72,139);fill-rule:nonzero;"/>
        <path d="M1101.22,1262.74L1044.37,1339.07C1044.29,1337.59 1044.26,1336.19 1044.29,1334.85C1044.9,1300.23 1012.94,1210.1 1021.56,1191.63C1030.18,1173.16 1099.84,1199.93 1099.84,1199.93L1101.22,1262.74Z" style="fill:rgb(44,58,100);fill-rule:nonzero;"/>
        <path d="M989.901,1449.65C989.901,1449.65 993.841,1457.34 1002.57,1459.25C1008.07,1460.44 1012.78,1463.31 1015.71,1467.32C1018.19,1470.71 1015.79,1475.48 1011.59,1475.48L967.276,1475.48C963.502,1475.48 960.558,1472.22 960.935,1468.47C961.265,1465.19 961.61,1461.36 961.76,1458.43C962.088,1452.03 968.499,1446.88 968.499,1446.88L989.901,1449.65Z" style="fill:rgb(44,58,100);fill-rule:nonzero;"/>
        <path d="M1059.1,1201.42C1059.1,1201.42 997.54,1431.15 995.653,1453.63C995.653,1453.63 983.646,1459.79 964.155,1448.91C964.155,1448.91 952.837,1345.94 964.155,1317.81C975.472,1289.67 961.908,1204.62 990.696,1185.44C1019.49,1166.25 1059.1,1201.42 1059.1,1201.42Z" style="fill:rgb(53,72,139);fill-rule:nonzero;"/>
        <path d="M1097.86,1052.67C1098.06,1049.53 1116.99,1036.74 1116.99,1036.74C1120.97,1012.85 1105.77,995.64 1105.77,995.64L1082.98,1011.85C1078.57,1012.11 1076.69,1013.72 1076.69,1013.72C1072.92,1012.7 1061.56,1013.41 1061.56,1013.41C1061.73,1018.85 1060.39,1024.11 1050.85,1025.36C1038.16,1027.01 1026.82,1018.35 1021.08,1012.47C1021.08,1012.47 1013.39,1011.8 1003.75,1014.94C1003.75,1014.94 999.084,1012.56 994.109,1012.41L975.454,995.64C975.454,995.64 953.597,1001.95 950.149,1034.89C950.149,1034.89 974.688,1053.56 976.459,1068.31L977.131,1073.91L979.509,1093.71L983.694,1128.46L971.233,1197.66C971.126,1198.27 971.067,1198.87 971.067,1199.47C971.067,1204.09 974.23,1208.25 978.879,1209.37C978.879,1209.37 979.949,1209.55 981.923,1209.82C995.133,1211.68 1048.76,1218.07 1090.8,1206.66C1100.25,1204.09 1106.48,1195.07 1105.7,1185.29L1096.8,1073.66C1096.8,1073.66 1097.65,1055.81 1097.86,1052.67Z" style="fill:rgb(249,151,70);fill-rule:nonzero;"/>
        <path d="M998.938,1157.58C998.105,1181.71 995.739,1202.18 981.923,1209.82C979.949,1209.55 978.879,1209.37 978.879,1209.37C974.23,1208.25 971.067,1204.09 971.067,1199.47C971.067,1198.87 971.126,1198.26 971.233,1197.66L983.694,1128.46L979.509,1093.71C979.711,1093.11 979.818,1092.79 979.818,1092.79C979.818,1092.79 999.996,1126.66 998.938,1157.58Z" style="fill:rgb(237,125,43);fill-rule:nonzero;"/>
        <path d="M1058.95,1006.24C1041.44,1005.77 1028.07,988.527 1028.07,988.527L1058.42,989.761C1057.9,994.302 1057.66,1000.42 1058.95,1006.24Z" style="fill:rgb(234,156,104);fill-rule:nonzero;"/>
        <path d="M1067.45,996.483C1067.45,996.483 1032.52,1005.71 1020.47,977.93C1007.47,947.954 1021.73,926.114 1033.59,924.641C1057.25,921.703 1070.99,930.722 1075.14,940.256C1079.3,949.79 1086.72,991.566 1067.45,996.483Z" style="fill:rgb(255,178,125);fill-rule:nonzero;"/>
        <path d="M1053.6,980.846C1053.6,980.846 1055.06,984.449 1064.28,982.427C1064.28,982.427 1072.01,980.73 1071.14,976.657C1071.14,976.657 1063.11,974.91 1053.6,980.846Z" style="fill:white;fill-rule:nonzero;"/>
        <path d="M1026.71,987.647C1026.71,987.647 1022.61,975.625 1023.1,969.208C1023.1,969.208 1013.98,957.585 1019.29,954.708C1024.6,951.832 1027.47,958.708 1028.69,957.359C1029.9,956.009 1031.8,933.17 1038.25,933.892C1044.7,934.613 1068.57,942.008 1079.03,932.986C1089.49,923.965 1064.11,888.718 1021.1,902.333C978.091,915.948 986.873,963.768 1026.71,987.647Z" style="fill:rgb(44,58,100);fill-rule:nonzero;"/>
        <path d="M999.883,921.086C999.883,921.086 997.934,915.276 1000.03,911.125C1000.03,911.125 1000.13,916.842 1002.37,919.386C1004.62,921.93 999.883,921.086 999.883,921.086Z" style="fill:rgb(44,58,100);fill-rule:nonzero;"/>
        <path d="M1000.78,917.023C1000.78,917.023 995.458,916.42 992.946,920.512C992.946,920.512 996.693,917.978 1000.48,920.665L1000.78,917.023Z" style="fill:rgb(44,58,100);fill-rule:nonzero;"/>
        <path d="M1139.88,916.306C1139.88,916.306 1140.12,911.109 1138.44,906.736C1136.76,902.363 1137.75,891.007 1139.9,891.646C1142.04,892.285 1141.08,896.364 1143.48,895.884C1145.88,895.404 1149.72,882.207 1152.84,883.407C1155.96,884.606 1158.23,889.046 1157.27,898.644C1156.31,908.242 1151.88,917.772 1151.88,917.772L1139.88,916.306Z" style="fill:rgb(255,178,125);fill-rule:nonzero;"/>
        <path d="M921.747,904.399C921.747,904.399 920.483,898.685 921.503,893.516C922.522,888.346 919.241,875.95 916.986,877.071C914.731,878.192 916.581,882.529 913.829,882.459C911.077,882.389 904.281,868.501 901.055,870.432C897.829,872.362 896.168,877.719 899.08,888.171C901.992,898.624 908.739,908.333 908.739,908.333L921.747,904.399Z" style="fill:rgb(255,178,125);fill-rule:nonzero;"/>
        <path d="M3052.65,1481.69L150.929,1481.69C149.267,1481.69 147.908,1480.33 147.908,1478.67L147.908,1478.23C147.908,1476.57 149.267,1475.21 150.929,1475.21L3052.65,1475.21C3054.31,1475.21 3055.67,1476.57 3055.67,1478.23L3055.67,1478.67C3055.67,1480.33 3054.31,1481.69 3052.65,1481.69Z" style="fill:rgb(46,53,82);fill-rule:nonzero;"/>
        <path d="M721.261,1116.7C721.261,1116.7 691.762,1104.9 668.219,1117.29C644.676,1129.68 623.591,1239.56 695.71,1253.53C695.71,1253.53 763.39,1327.34 721.261,1116.7Z" style="fill:rgb(35,56,98);fill-rule:nonzero;"/>
        <path d="M801.943,1289.85L800.142,1283.33C800.142,1283.33 791.494,1282.46 791.387,1282.63L792.155,1302.3C792.155,1302.3 796.617,1301.31 798.249,1299.44L801.416,1294.16C802.196,1292.92 801.943,1289.85 801.943,1289.85Z" style="fill:rgb(255,178,125);fill-rule:nonzero;"/>
        <path d="M779.504,1121.46C779.504,1121.46 790.074,1120.92 795.993,1134.85C808.26,1163.72 802.932,1226.05 802.188,1234.97C802.188,1234.97 806.401,1252.69 800.142,1283.33L792.327,1282.9C792.327,1282.9 779.419,1167.08 780.953,1155.12C782.486,1143.15 779.504,1121.46 779.504,1121.46Z" style="fill:white;fill-rule:nonzero;"/>
        <path d="M691.346,1462.28L695.345,1476.72L729.132,1476.72C729.132,1476.72 739.191,1458.26 691.346,1462.28Z" style="fill:rgb(35,56,98);fill-rule:nonzero;"/>
        <path d="M763.798,1462.28L767.796,1476.72L801.584,1476.72C801.584,1476.72 811.643,1458.26 763.798,1462.28Z" style="fill:rgb(35,56,98);fill-rule:nonzero;"/>
        <path d="M765.266,1120.48L733.572,1136.67L729.401,1115.7C729.401,1115.7 732.342,1107.66 733.529,1094.99C734.038,1089.61 734.236,1083.36 733.741,1076.53L759.569,1089.75C759.569,1089.75 758.976,1092.04 758.565,1095.45C758.226,1098.24 758.014,1101.81 758.368,1105.47C758.891,1111 760.686,1116.76 765.266,1120.48Z" style="fill:rgb(255,178,125);fill-rule:nonzero;"/>
        <path d="M791.322,1249.78L727.227,1254.83C727.227,1254.83 719.31,1367.11 761.425,1466.58L799.237,1464.05L791.322,1249.78Z" style="fill:rgb(35,56,98);fill-rule:nonzero;"/>
        <path d="M691.858,1255.94C691.858,1255.94 679.259,1320.37 688.087,1464.82L727.706,1464.82L752.5,1289.27C753.296,1284.14 763.404,1276.99 763.404,1276.99L763.798,1257.19L691.858,1255.94Z" style="fill:rgb(43,71,139);fill-rule:nonzero;"/>
        <path d="M692.181,1171.35L695.865,1197.49L685.704,1249.75C684.802,1254.39 688.167,1258.77 692.883,1259.09C712.179,1260.4 758.818,1262.34 790.479,1253.38C794.699,1252.18 797.502,1248.19 797.154,1243.82L791.587,1173.92L789.629,1149.32L787.617,1124.05C787.617,1124.05 777.964,1118.09 761.196,1115.71C761.449,1119.6 760.143,1123.16 752.14,1124.03C742.74,1125.11 735.667,1120.85 730.46,1116.85C730.333,1116.64 729.655,1115.93 729.401,1115.71C723.685,1116.25 717.096,1117.25 711.445,1118.38C710.555,1118.56 690.403,1158.6 690.403,1158.6L692.181,1171.35Z" style="fill:rgb(249,151,70);fill-rule:nonzero;"/>
        <path d="M685.704,1249.75C685.704,1249.75 775.4,1203.84 731.347,1128.89C729.235,1125.3 725.706,1118.73 721.261,1116.7C717.14,1117.07 716.304,1117.29 712.96,1118.08C717.533,1119.35 724.134,1130.08 727.63,1139.82C734.167,1158.03 750.349,1192.5 686.877,1237.9L685.704,1249.75Z" style="fill:rgb(43,71,139);fill-rule:nonzero;"/>
        <path d="M714.822,1195.21C715.816,1195.13 724.148,1195.45 724.148,1195.45C724.148,1195.45 728.293,1179.84 739.792,1179.84C739.792,1179.84 745.168,1179.31 743.519,1183.67C742.82,1185.51 741.683,1184.85 739.935,1191.18C738.186,1197.52 736.286,1199.16 730.401,1202.5L725.433,1203.84C725.433,1203.84 712.209,1195.4 714.822,1195.21Z" style="fill:rgb(255,178,125);fill-rule:nonzero;"/>
        <path d="M758.565,1107.84C748.868,1109.07 733.897,1095.28 733.529,1094.99C733.529,1094.99 751.469,1095.13 758.565,1095.45C758.226,1098.24 758.212,1104.17 758.565,1107.84Z" style="fill:rgb(237,151,93);fill-rule:nonzero;"/>
        <path d="M768.695,1101.83C768.695,1101.83 724.581,1107.21 723.639,1076.13C722.698,1045.05 741.085,1024.91 753.358,1025.14C777.832,1025.6 781.869,1035.49 784.707,1045.79C787.543,1056.09 789.004,1099.64 768.695,1101.83Z" style="fill:rgb(255,178,125);fill-rule:nonzero;"/>
        <path d="M759.94,1084.78C759.94,1084.78 760.746,1088.03 768.844,1087.43C768.844,1087.43 775.644,1086.93 775.393,1083.35C775.393,1083.35 768.765,1080.88 759.94,1084.78Z" style="fill:white;fill-rule:nonzero;"/>
        <path d="M733.23,1094.99C733.23,1094.99 729.471,1083.92 729.946,1077.71C729.946,1077.71 721.125,1066.47 726.265,1063.68C731.404,1060.9 734.177,1067.56 735.355,1066.25C736.533,1064.94 738.371,1042.84 744.612,1043.54C750.854,1044.24 779.109,1052.28 789.232,1043.55C799.354,1034.82 769.631,999.829 728.013,1013C686.395,1026.18 694.686,1071.88 733.23,1094.99Z" style="fill:rgb(44,58,100);fill-rule:nonzero;"/>
        <path d="M707.482,1031.15C707.482,1031.15 705.596,1025.53 707.621,1021.51C707.621,1021.51 707.72,1027.04 709.892,1029.5C712.065,1031.97 707.482,1031.15 707.482,1031.15Z" style="fill:rgb(44,58,100);fill-rule:nonzero;"/>
        <path d="M708.348,1027.22C708.348,1027.22 703.2,1026.63 700.769,1030.59C700.769,1030.59 704.396,1028.14 708.062,1030.74L708.348,1027.22Z" style="fill:rgb(44,58,100);fill-rule:nonzero;"/>
        <path d="M711.445,1118.38C711.445,1118.38 703.9,1117.95 690.403,1140.47C683.191,1152.51 652.437,1209.66 668.271,1215.87C684.106,1222.07 715.983,1215.82 724.148,1207.18L719.528,1193.88C719.528,1193.88 697.434,1194.88 697.566,1193.7C697.698,1192.51 702.52,1181.21 708.826,1172.32C730.401,1141.9 711.445,1118.38 711.445,1118.38Z" style="fill:white;fill-rule:nonzero;"/>
        <path d="M752.14,1124.03C752.14,1124.03 736.617,1117.04 731.167,1109.49C731.167,1109.49 725.541,1112.75 725.013,1116.76C724.485,1120.77 744.008,1127.75 752.14,1124.03Z" style="fill:white;fill-rule:nonzero;"/>
        <path d="M759.412,1111.12C759.412,1111.12 758.33,1122.01 752.14,1124.03C752.14,1124.03 763.45,1124.84 767.242,1116.71C767.242,1116.71 763.33,1111.01 759.412,1111.12Z" style="fill:white;fill-rule:nonzero;"/>
        <path d="M760.485,1166.51C760.485,1167.8 759.625,1168.85 758.565,1168.85C757.505,1168.85 756.646,1167.8 756.646,1166.51C756.646,1165.22 757.505,1164.18 758.565,1164.18C759.625,1164.18 760.485,1165.22 760.485,1166.51Z" style="fill:rgb(237,125,43);fill-rule:nonzero;"/>
        <path d="M760.485,1197.78C760.485,1199.07 759.625,1200.11 758.565,1200.11C757.505,1200.11 756.646,1199.07 756.646,1197.78C756.646,1196.49 757.505,1195.45 758.565,1195.45C759.625,1195.45 760.485,1196.49 760.485,1197.78Z" style="fill:rgb(237,125,43);fill-rule:nonzero;"/>
        <path d="M760.485,1231.51C760.485,1232.8 759.625,1233.84 758.565,1233.84C757.505,1233.84 756.646,1232.8 756.646,1231.51C756.646,1230.22 757.505,1229.18 758.565,1229.18C759.625,1229.18 760.485,1230.22 760.485,1231.51Z" style="fill:rgb(237,125,43);fill-rule:nonzero;"/>
        <path d="M800.142,1283.33L802.208,1277.42L792.143,1276.83L792.327,1282.9L800.142,1283.33Z" style="fill:white;fill-rule:nonzero;"/>
        <path d="M723.846,1192.5C723.846,1192.5 725.459,1184.98 725.107,1183.22C724.755,1181.46 728.188,1182.8 728.18,1186.44C728.177,1187.59 727.212,1188.68 727.212,1188.68L725.416,1195.89L723.846,1192.5Z" style="fill:rgb(255,178,125);fill-rule:nonzero;"/>
        <path d="M723.846,1192.5L714.837,1194.46L716.48,1205.4L723.166,1205.4L719.342,1210.83L721.054,1211.55L730.401,1202.5C730.401,1202.5 725.406,1197.28 723.846,1192.5Z" style="fill:rgb(215,233,255);fill-rule:nonzero;"/>
        <path d="M329.184,1475.48C329.184,1475.48 319.891,1467.57 322.624,1455.1C325.357,1442.63 348.716,1443.73 383.306,1447.28C417.895,1450.82 506.41,1451.92 537.793,1445.36C569.177,1438.8 580.11,1449.19 583.391,1457.93C586.671,1466.68 579.017,1475.48 579.017,1475.48L329.184,1475.48Z" style="fill:rgb(249,151,70);fill-rule:nonzero;"/>
        <path d="M379.605,1339.28C379.605,1339.28 381.007,1332.2 378.82,1331.65C376.634,1331.1 376.224,1336.16 376.224,1336.16C376.224,1336.16 369.117,1325.96 364.47,1331.61C359.823,1337.25 373.55,1344.9 373.55,1344.9L379.605,1339.28Z" style="fill:rgb(255,178,125);fill-rule:nonzero;"/>
        <path d="M449.936,1364.06C437.825,1363.89 415.536,1350.64 415.536,1334.24L415.536,1308.65C415.536,1292.34 432.944,1280.81 451.377,1280.81C478.453,1280.81 484.336,1302.66 484.336,1308.65L484.336,1332.79C484.336,1349.99 463.824,1364.26 449.936,1364.06Z" style="fill:rgb(255,178,125);fill-rule:nonzero;"/>
        <path d="M454.725,1447.28L444.962,1447.28C427.602,1447.28 413.398,1433.07 413.398,1415.71L413.398,1389C413.398,1371.64 427.602,1357.43 444.962,1357.43L454.725,1357.43C472.085,1357.43 486.289,1371.64 486.289,1389L486.289,1415.71C486.289,1433.07 472.085,1447.28 454.725,1447.28Z" style="fill:rgb(255,178,125);fill-rule:nonzero;"/>
        <path d="M434.426,1359.26C434.426,1359.26 426.817,1362.57 420.642,1360.35C411.736,1357.15 401.542,1356.2 399.499,1354.41C396.039,1351.39 379.605,1339.28 379.605,1339.28L373.55,1344.9C373.55,1344.9 384.362,1370.42 390.417,1374.31C396.471,1378.2 408.66,1393.52 425.015,1393.34C433.511,1393.24 434.426,1359.26 434.426,1359.26Z" style="fill:rgb(255,178,125);fill-rule:nonzero;"/>
        <path d="M437.452,1342.36C437.452,1342.36 442.19,1349.1 448.932,1348.92C455.675,1348.73 460.23,1342.36 460.23,1342.36C460.23,1342.36 450.572,1335.43 437.452,1342.36Z" style="fill:white;fill-rule:nonzero;"/>
        <path d="M440.186,1284.91C440.186,1284.91 435.812,1293.38 440.186,1298.85C444.559,1304.32 456.313,1301.04 456.313,1301.04C456.313,1301.04 451.666,1299.12 451.666,1297.21C451.666,1297.21 458.772,1300.76 462.599,1296.94C466.426,1293.11 463.923,1281.36 460.23,1279.17C456.537,1276.98 442.099,1277.92 440.186,1284.91Z" style="fill:rgb(44,58,100);fill-rule:nonzero;"/>
        <path d="M465.749,1359.26C465.749,1359.26 473.358,1362.57 479.533,1360.35C488.439,1357.15 498.633,1356.2 500.676,1354.41C504.136,1351.39 520.57,1339.28 520.57,1339.28L526.625,1344.9C526.625,1344.9 515.813,1370.42 509.758,1374.31C503.704,1378.2 491.515,1393.52 475.161,1393.34C466.665,1393.24 465.749,1359.26 465.749,1359.26Z" style="fill:rgb(255,178,125);fill-rule:nonzero;"/>
        <path d="M520.57,1339.28C520.57,1339.28 519.167,1332.2 521.354,1331.65C523.541,1331.1 523.951,1336.16 523.951,1336.16C523.951,1336.16 531.058,1325.96 535.705,1331.61C540.352,1337.25 526.625,1344.9 526.625,1344.9L520.57,1339.28Z" style="fill:rgb(255,178,125);fill-rule:nonzero;"/>
        <path d="M410.887,1411.19C410.887,1411.19 394.133,1423.57 384.971,1428.69C376.426,1433.46 366.566,1442.45 366.566,1443.54C366.566,1444.63 368.508,1453.74 373.55,1454.47C378.593,1455.2 430.578,1450.98 437.386,1446.35C437.386,1446.35 423.826,1411.47 410.887,1411.19Z" style="fill:rgb(255,178,125);fill-rule:nonzero;"/>
        <path d="M362.973,1424.47C362.973,1424.47 371.987,1423.08 378.684,1428.41C378.684,1428.41 381.452,1430.77 384.971,1428.69C384.971,1428.69 400.958,1434.43 395.88,1453.29C395.88,1453.29 376.799,1456.39 373.55,1454.47C370.301,1452.56 362.973,1424.47 362.973,1424.47Z" style="fill:white;fill-rule:nonzero;"/>
        <path d="M373.55,1454.47C373.55,1454.47 363.65,1454.38 359.823,1445.36C355.997,1436.34 355.723,1427.05 361.737,1424.86C367.75,1422.67 372.416,1425.13 375.13,1429.23C377.845,1433.33 387.277,1451.83 373.55,1454.47Z" style="fill:rgb(175,205,251);fill-rule:nonzero;"/>
        <path d="M486.729,1411.19C486.729,1411.19 503.483,1423.57 512.646,1428.69C521.19,1433.46 531.051,1442.45 531.051,1443.54C531.051,1444.63 529.109,1453.74 524.065,1454.47C519.024,1455.2 467.039,1450.98 460.23,1446.35C460.23,1446.35 473.791,1411.47 486.729,1411.19Z" style="fill:rgb(255,178,125);fill-rule:nonzero;"/>
        <path d="M534.644,1424.47C534.644,1424.47 525.63,1423.08 518.932,1428.41C518.932,1428.41 516.164,1430.77 512.646,1428.69C512.646,1428.69 496.658,1434.43 501.736,1453.29C501.736,1453.29 520.817,1456.39 524.065,1454.47C527.315,1452.56 534.644,1424.47 534.644,1424.47Z" style="fill:white;fill-rule:nonzero;"/>
        <path d="M524.065,1454.47C524.065,1454.47 533.967,1454.38 537.793,1445.36C541.62,1436.34 541.894,1427.05 535.88,1424.86C529.866,1422.67 525.201,1425.13 522.486,1429.23C519.771,1433.33 510.339,1451.83 524.065,1454.47Z" style="fill:rgb(175,205,251);fill-rule:nonzero;"/>
        <path d="M413.398,1399.62C413.398,1399.62 442.554,1415.93 486.289,1402.36C486.289,1402.36 490.084,1406.05 491.275,1408.05C494.282,1413.11 493.542,1416.11 493.542,1416.11C493.542,1416.11 467.662,1428.91 465.749,1448.32C465.749,1448.32 444.019,1456.25 434.426,1447.61C434.426,1447.61 420.411,1415.91 406.653,1414.27C406.653,1414.27 407.749,1406.36 413.398,1399.62Z" style="fill:white;fill-rule:nonzero;"/>
        <path d="M1360.86,1386.17L1355,1410.83L1347.22,1443.54L1322.9,1443.54L1321.46,1412.21L1320.34,1388.04L1360.86,1386.17Z" style="fill:rgb(255,178,125);fill-rule:nonzero;"/>
        <path d="M1437.91,849.279C1437.91,849.279 1457.14,828.694 1469.65,844.835C1482.16,860.978 1496.02,871.874 1515.22,884.288C1534.41,896.701 1498.26,994.01 1474.21,992.009C1450.17,990.009 1352.06,913.294 1437.91,849.279Z" style="fill:rgb(188,63,63);fill-rule:nonzero;"/>
        <path d="M1342.11,839.491C1346.92,835.901 1391.13,820.722 1434.24,835.651C1477.35,850.58 1400.85,892.169 1400.85,892.169L1376.06,893.235L1342.11,839.491Z" style="fill:rgb(237,125,43);fill-rule:nonzero;"/>
        <path d="M1313.29,1479.48C1313.29,1479.48 1313.29,1467.57 1314.99,1463.61C1316.68,1459.66 1322.9,1443.54 1322.9,1443.54L1347.22,1443.54C1347.22,1443.54 1351.74,1458.24 1352.02,1463.05C1352.31,1467.86 1352.02,1479.48 1352.02,1479.48L1313.29,1479.48Z" style="fill:rgb(35,56,98);fill-rule:nonzero;"/>
        <path d="M1467.67,1479.48C1467.67,1479.48 1467.67,1467.57 1465.97,1463.61C1464.27,1459.66 1458.05,1443.54 1458.05,1443.54L1433.74,1443.54C1433.74,1443.54 1429.22,1458.24 1428.93,1463.05C1428.65,1467.86 1428.93,1479.48 1428.93,1479.48L1467.67,1479.48Z" style="fill:rgb(35,56,98);fill-rule:nonzero;"/>
        <path d="M1370.26,811.375C1370.26,811.375 1369.4,837.88 1366.01,849.755L1339.16,907.631L1440.23,883.611L1416.13,850.306C1416.13,850.306 1408.85,814.768 1412.67,801.622C1416.48,788.475 1370.26,811.375 1370.26,811.375Z" style="fill:rgb(255,178,125);fill-rule:nonzero;"/>
        <path d="M1370.11,815.036C1370.11,815.027 1378.1,834.276 1393.16,833.852C1408.21,833.428 1411.64,816.403 1411.64,816.403L1370.11,815.036Z" style="fill:rgb(237,152,95);fill-rule:nonzero;"/>
        <path d="M1361.13,799.458C1361.13,799.458 1356.26,775.187 1352.87,767.836C1349.48,760.485 1346.65,727.69 1384.25,725.994C1384.25,725.994 1398.67,727.69 1406.59,722.883C1406.59,722.883 1406.59,727.69 1404.61,729.386C1404.61,729.386 1417.61,726.276 1427.79,737.585C1437.97,748.894 1421.01,788.475 1421.86,797.805L1361.13,799.458Z" style="fill:rgb(44,58,100);fill-rule:nonzero;"/>
        <path d="M1391.43,826.417C1380.52,826.225 1360.45,811.7 1360.45,793.712L1360.45,765.643C1360.45,759.074 1365.03,753.7 1370.63,753.7L1412.24,753.7C1417.84,753.7 1422.42,759.074 1422.42,765.643L1422.42,792.124C1422.42,810.985 1403.94,826.638 1391.43,826.417Z" style="fill:rgb(255,178,125);fill-rule:nonzero;"/>
        <path d="M1360.45,780.629C1360.45,780.629 1360.5,763.764 1373.86,761.17C1387.22,758.577 1417.12,769.391 1421.36,757.093C1425.6,744.794 1363.57,745.006 1360.45,752.852C1357.32,760.697 1360.45,780.629 1360.45,780.629Z" style="fill:rgb(44,58,100);fill-rule:nonzero;"/>
        <path d="M1407.02,1072.91C1413.72,1052.09 1413.58,1159.13 1386.72,1279.53C1382.62,1297.91 1373.44,1342.22 1366.85,1385.1L1311.82,1385.1C1311.06,1350.47 1307.35,1302.13 1305.01,1265.92C1297.68,1152.42 1316.34,1067.25 1316.34,1067.25L1407.02,1072.91Z" style="fill:rgb(43,71,139);fill-rule:nonzero;"/>
        <path d="M1477.65,1265.92C1477.04,1300.62 1469.99,1346.72 1469.35,1380.51L1413.52,1380.51C1409.77,1355.98 1403.81,1330.72 1399.53,1310.35C1396.48,1295.88 1394.28,1283.87 1394.32,1276.33C1394.38,1261.59 1385.06,1219.09 1379.5,1181.61C1379.5,1181.56 1379.49,1181.51 1379.48,1181.46C1379.26,1180.02 1379.06,1178.58 1378.86,1177.16C1371.42,1124.48 1374.04,1072.91 1374.04,1072.91L1468.25,1067.03C1468.25,1067.03 1479.26,1173.37 1477.65,1265.92Z" style="fill:rgb(43,71,139);fill-rule:nonzero;"/>
        <path d="M1308.88,1110.9C1308.88,1110.9 1330.07,1136.58 1387.65,1132.88C1445.24,1129.17 1472.71,1119.15 1472.71,1119.15L1308.88,1110.9Z" style="fill:rgb(35,56,98);fill-rule:nonzero;"/>
        <path d="M1472.71,1119.15C1453.9,1121.71 1325.94,1128.36 1308.88,1110.9C1291.82,1093.44 1336.72,855.333 1336.72,855.333C1336.72,855.333 1341.81,853.862 1350.39,852.247C1354.77,851.423 1360.05,850.567 1366.02,849.847C1366.09,851.703 1367.57,879.775 1390.88,891.372C1390.88,891.372 1418.87,880.159 1416.13,850.303C1416.09,849.951 1416.05,849.615 1416.01,849.279C1419.74,849.679 1423.52,850.199 1427.32,850.854C1435,852.174 1442.78,854.038 1450.49,856.589C1450.49,856.589 1491.52,1116.6 1472.71,1119.15Z" style="fill:rgb(249,151,70);fill-rule:nonzero;"/>
        <path d="M1309.95,996.218C1309.2,997.208 1314.3,1004.54 1321.5,1013.96C1336.3,1033.31 1359.99,1061.47 1359.99,1061.47C1359.67,1071.02 1358.34,1077.18 1358.34,1077.18C1325.8,1061.81 1303.8,1047.43 1289.22,1035.88C1268.72,1019.64 1262.84,1008.99 1262.84,1008.99C1295.72,869.935 1337.89,855.456 1337.89,855.456L1351.65,939.247C1351.65,939.247 1312.26,993.203 1309.95,996.218Z" style="fill:rgb(249,151,70);fill-rule:nonzero;"/>
        <path d="M1427.32,850.854L1418.85,876.64L1407.54,893.235L1391.33,902.033L1376.06,893.235L1350.39,852.247C1354.77,851.423 1360.05,850.567 1366.02,849.847C1366.05,850.722 1366.4,854.918 1369.2,860.325C1378.46,878.217 1404.62,878.375 1413.78,860.427C1415.35,857.349 1416.27,853.962 1416.13,850.303C1416.11,849.95 1416.05,849.615 1416.01,849.279C1419.74,849.679 1423.52,850.199 1427.32,850.854Z" style="fill:white;fill-rule:nonzero;"/>
        <path d="M1359.99,1061.48C1359.98,1061.75 1359.97,1062.01 1359.96,1062.28C1359.89,1064.04 1359.78,1065.68 1359.65,1067.18C1358.84,1068.31 1357.93,1069.37 1356.95,1070.36C1355.46,1071.88 1353.84,1073.15 1352.19,1074.22C1351.37,1073.83 1350.54,1073.42 1349.74,1073.02C1321.87,1059.22 1302.49,1046.39 1289.23,1035.88C1297.64,1033.29 1309.43,1027.38 1321.5,1013.95C1336.3,1033.31 1359.99,1061.48 1359.99,1061.48Z" style="fill:rgb(255,178,125);fill-rule:nonzero;"/>
        <path d="M1521.56,1003.87C1521.56,1003.87 1515.89,1014.64 1495.7,1031.27C1481.34,1043.09 1459.62,1057.89 1427.39,1073.88C1427.39,1073.88 1425.94,1067.75 1425.44,1058.21C1425.44,1058.21 1448.58,1029.6 1463.01,1009.97C1470.03,1000.41 1474.99,992.985 1474.21,992.009C1472.38,989.704 1447.69,957.227 1436.67,942.742C1433.48,938.533 1431.44,935.847 1431.44,935.847L1445.38,853.466C1445.38,853.466 1486.03,865.478 1521.56,1003.87Z" style="fill:rgb(249,151,70);fill-rule:nonzero;"/>
        <path d="M1495.7,1031.27C1482.6,1042.05 1463.37,1055.31 1435.63,1069.71C1434.94,1070.06 1434.24,1070.42 1433.54,1070.78C1429.99,1066.5 1427.84,1061.41 1426.53,1056.86C1427,1056.29 1427.6,1055.53 1428.33,1054.62C1434.98,1046.33 1451.68,1025.38 1463.01,1009.96C1475.33,1023.15 1487.24,1028.84 1495.7,1031.27Z" style="fill:rgb(255,178,125);fill-rule:nonzero;"/>
        <path d="M1416.01,849.279C1397.34,847.28 1379.82,848.191 1366.02,849.847C1366.01,849.783 1366.01,849.751 1366.01,849.751C1366.01,849.751 1412.28,821.135 1416.01,849.279Z" style="fill:rgb(255,178,125);fill-rule:nonzero;"/>
        <path d="M1369.6,930.208L1368.65,930.208L1367.95,885.611L1370.35,885.611L1369.6,930.208Z" style="fill:rgb(237,125,43);fill-rule:nonzero;"/>
        <path d="M1368.56,929.05C1367.69,930.354 1365.75,934.666 1367.04,935.122C1368.33,935.577 1370.6,935.604 1371.2,934.997C1371.81,934.39 1370.19,926.587 1368.56,929.05Z" style="fill:rgb(237,125,43);fill-rule:nonzero;"/>
        <path d="M1413.4,930.208L1412.45,930.208L1411.75,885.611L1414.15,885.611L1413.4,930.208Z" style="fill:rgb(237,125,43);fill-rule:nonzero;"/>
        <path d="M1412.36,929.05C1411.49,930.354 1409.55,934.666 1410.84,935.122C1412.13,935.577 1414.39,935.604 1415,934.997C1415.61,934.39 1413.99,926.587 1412.36,929.05Z" style="fill:rgb(237,125,43);fill-rule:nonzero;"/>
        <path d="M1376.06,893.235L1336.73,855.333C1336.73,855.333 1327.87,849.047 1341.87,839.65C1355.86,830.252 1376.06,893.235 1376.06,893.235Z" style="fill:rgb(237,125,43);fill-rule:nonzero;"/>
        <path d="M1407.54,893.235L1446.87,855.333C1446.87,855.333 1455.73,849.047 1441.73,839.65C1427.74,830.252 1407.54,893.235 1407.54,893.235Z" style="fill:rgb(237,125,43);fill-rule:nonzero;"/>
        <path d="M1456.91,1077.75C1449.25,1078.4 1442.86,1076.48 1437.92,1072.07C1437.09,1071.33 1436.33,1070.54 1435.63,1069.71C1431.74,1065.16 1429.56,1059.45 1428.33,1054.62C1426.92,1049.11 1426.77,1044.78 1426.77,1044.69L1426.74,1043.58L1363.21,1043.58L1363.25,1044.76C1363.5,1051.59 1362.4,1057.45 1359.96,1062.28C1358.75,1064.69 1357.21,1066.84 1355.34,1068.73C1353.61,1070.47 1351.7,1071.88 1349.74,1073.02C1341.23,1077.95 1331.77,1077.75 1331.65,1077.75L1330.48,1077.71L1330.48,1104.55L1458.15,1104.55L1458.15,1077.65L1456.91,1077.75Z" style="fill:rgb(237,125,43);fill-rule:nonzero;"/>
        <path d="M1474.21,992.009C1474.21,992.009 1438.8,945.543 1466.83,932.015C1477.96,926.644 1493.63,990.409 1485.23,996.407C1476.83,1002.41 1463.01,1009.96 1463.01,1009.96L1474.21,992.009Z" style="fill:rgb(237,125,43);fill-rule:nonzero;"/>
        <path d="M1314.03,984.349C1314.03,984.349 1326.33,926.006 1315.54,932.015C1304.74,938.023 1288.75,990.409 1297.14,996.407C1305.54,1002.41 1319.36,1009.96 1319.36,1009.96L1314.03,984.349Z" style="fill:rgb(237,125,43);fill-rule:nonzero;"/>
        <path d="M1469.25,991.874C1453.08,971.8 1447.04,939.202 1447.86,905.564C1448.48,880.306 1451.94,857.51 1452.17,856.712L1465.43,867.042C1465.38,867.232 1457.82,881.052 1457.24,905.632C1456.7,928.109 1455.64,945.221 1468.34,984.349L1469.25,991.874Z" style="fill:rgb(188,63,63);fill-rule:nonzero;"/>
        <path d="M1346.47,1397.51L1317.97,1397.5C1315.45,1397.78 1311.5,1394.09 1311.5,1388.81C1311.5,1388.81 1311.44,1376.15 1310.61,1373.9C1306.94,1364.04 1312.4,1363.51 1317.67,1363.51L1369.66,1363.51C1374.94,1363.51 1366.85,1379.82 1366.85,1385.1L1368.72,1392.02C1368.72,1397.3 1351.74,1397.51 1346.47,1397.51Z" style="fill:rgb(35,56,98);fill-rule:nonzero;"/>
        <path d="M1355,1410.83L1347.22,1443.54L1322.9,1443.54L1321.46,1412.21C1325.08,1413.53 1337.28,1416.93 1355,1410.83Z" style="fill:white;fill-rule:nonzero;"/>
        <path d="M1420.14,1386.17L1426,1410.83L1433.79,1443.54L1458.1,1443.54L1459.55,1412.21L1460.67,1388.04L1420.14,1386.17Z" style="fill:rgb(255,178,125);fill-rule:nonzero;"/>
        <path d="M1434.54,1397.51L1463.03,1397.5C1465.55,1397.78 1469.5,1394.09 1469.5,1388.81C1469.5,1388.81 1469.56,1376.15 1470.4,1373.9C1474.06,1364.04 1468.61,1363.51 1463.33,1363.51L1411.34,1363.51C1406.07,1363.51 1414.15,1379.82 1414.15,1385.1L1412.28,1392.02C1412.28,1397.3 1429.26,1397.51 1434.54,1397.51Z" style="fill:rgb(35,56,98);fill-rule:nonzero;"/>
        <path d="M1426,1410.83L1433.79,1443.54L1458.1,1443.54L1459.55,1412.21C1455.92,1413.53 1443.73,1416.93 1426,1410.83Z" style="fill:white;fill-rule:nonzero;"/>
        <path d="M1381.07,806.838C1381.07,806.838 1384.85,811.94 1391.43,811.758C1398.02,811.576 1401.12,806.838 1401.12,806.838C1401.12,806.838 1390,805.016 1381.07,806.838Z" style="fill:white;fill-rule:nonzero;"/>
    </g>
</svg>
